<svg width="71" height="71" viewBox="0 0 71 71" fill="none" xmlns="http://www.w3.org/2000/svg">
<circle cx="35.7836" cy="35.2172" r="32.4008" fill="#FE9496" fill-opacity="0.2"/>
<circle cx="35.5" cy="35.5" r="35.5" fill="#FE9496" fill-opacity="0.2"/>
<circle cx="35.5007" cy="35.5007" r="24.7936" fill="#FE9496" fill-opacity="0.2"/>
<path d="M46.4375 37.7812V33.9531C46.4375 31.2348 44.2339 29.0312 41.5156 29.0312H39.3281C38.422 29.0312 37.6875 28.2967 37.6875 27.3906V25.2031C37.6875 22.4848 35.4839 20.2812 32.7656 20.2812H30.0312M39.875 37.7813L35.5 33.4063M35.5 33.4063L31.125 37.7812M35.5 33.4063L35.5 42.1562M33.3125 20.2812H26.2031C25.297 20.2812 24.5625 21.0158 24.5625 21.9219V47.0781C24.5625 47.9842 25.297 48.7188 26.2031 48.7188H44.7969C45.703 48.7188 46.4375 47.9842 46.4375 47.0781V33.4062C46.4375 26.1575 40.5612 20.2812 33.3125 20.2812Z" stroke="#0F172A" stroke-width="1.5" stroke-linecap="round" stroke-linejoin="round"/>
</svg>
