<svg width="24" height="21" viewBox="0 0 24 21" fill="none" xmlns="http://www.w3.org/2000/svg">
<path d="M18.4991 17.2791C18.7673 17.3012 19.0385 17.3125 19.3123 17.3125C20.448 17.3125 21.5384 17.1183 22.552 16.7614C22.5588 16.6751 22.5623 16.588 22.5623 16.5C22.5623 14.7051 21.1073 13.25 19.3123 13.25C18.6324 13.25 18.0013 13.4588 17.4795 13.8158M18.4991 17.2791C18.4992 17.2902 18.4992 17.3014 18.4992 17.3125C18.4992 17.5562 18.4858 17.7968 18.4597 18.0336C16.5565 19.1256 14.3508 19.75 11.9992 19.75C9.64765 19.75 7.44192 19.1256 5.53876 18.0336C5.51262 17.7968 5.49921 17.5562 5.49921 17.3125C5.49921 17.3014 5.49923 17.2903 5.49929 17.2792M18.4991 17.2791C18.4927 16.0045 18.1194 14.8166 17.4795 13.8158M17.4795 13.8158C16.3248 12.0098 14.3018 10.8125 11.9992 10.8125C9.6969 10.8125 7.67416 12.0095 6.51937 13.8151M6.51937 13.8151C5.99779 13.4585 5.367 13.25 4.6875 13.25C2.89257 13.25 1.4375 14.7051 1.4375 16.5C1.4375 16.588 1.441 16.6751 1.44786 16.7614C2.46146 17.1183 3.5518 17.3125 4.6875 17.3125C4.96087 17.3125 5.23161 17.3012 5.49929 17.2792M6.51937 13.8151C5.87914 14.8161 5.50569 16.0043 5.49929 17.2792M15.2492 4.3125C15.2492 6.10743 13.7941 7.5625 11.9992 7.5625C10.2043 7.5625 8.74921 6.10743 8.74921 4.3125C8.74921 2.51757 10.2043 1.0625 11.9992 1.0625C13.7941 1.0625 15.2492 2.51757 15.2492 4.3125ZM21.7492 7.5625C21.7492 8.90869 20.6579 10 19.3117 10C17.9655 10 16.8742 8.90869 16.8742 7.5625C16.8742 6.21631 17.9655 5.125 19.3117 5.125C20.6579 5.125 21.7492 6.21631 21.7492 7.5625ZM7.12421 7.5625C7.12421 8.90869 6.0329 10 4.68671 10C3.34051 10 2.24921 8.90869 2.24921 7.5625C2.24921 6.21631 3.34051 5.125 4.68671 5.125C6.0329 5.125 7.12421 6.21631 7.12421 7.5625Z" stroke="white" stroke-width="1.5" stroke-linecap="round" stroke-linejoin="round"/>
</svg>
