<svg width="21" height="22" viewBox="0 0 21 22" fill="none" xmlns="http://www.w3.org/2000/svg">
<path d="M7.125 11H11.3438M7.125 14H11.3438M7.125 17H11.3438M14.7188 17.75H17.25C18.648 17.75 19.7812 16.7426 19.7812 15.5V5.10822C19.7812 3.97324 18.8306 3.01015 17.5582 2.91627C17.1382 2.88529 16.7169 2.85858 16.2943 2.83619M9.76821 2.83619C9.69543 3.04602 9.65625 3.26894 9.65625 3.5C9.65625 3.91421 10.034 4.25 10.5 4.25H15.5625C16.0285 4.25 16.4062 3.91421 16.4062 3.5C16.4062 3.26894 16.3671 3.04602 16.2943 2.83619M9.76821 2.83619C10.0868 1.91757 11.0495 1.25 12.1875 1.25H13.875C15.013 1.25 15.9757 1.91757 16.2943 2.83619M9.76821 2.83619C9.3456 2.85858 8.92429 2.88529 8.50435 2.91627C7.23187 3.01015 6.28125 3.97324 6.28125 5.10822V7.25M6.28125 7.25H2.48438C1.78539 7.25 1.21875 7.75368 1.21875 8.375V19.625C1.21875 20.2463 1.78539 20.75 2.48438 20.75H13.4531C14.1521 20.75 14.7188 20.2463 14.7188 19.625V8.375C14.7188 7.75368 14.1521 7.25 13.4531 7.25H6.28125ZM4.59375 11H4.60219V11.0075H4.59375V11ZM4.59375 14H4.60219V14.0075H4.59375V14ZM4.59375 17H4.60219V17.0075H4.59375V17Z" stroke="#0D1A26" stroke-width="1.5" stroke-linecap="round" stroke-linejoin="round"/>
</svg>
