<svg width="24" height="18" viewBox="0 0 24 18" fill="none" xmlns="http://www.w3.org/2000/svg">
<path d="M7.5 13.5V14.25C7.5 15.4926 8.50736 16.5 9.75 16.5H17.25C18.4926 16.5 19.5 15.4926 19.5 14.25V6.75C19.5 5.50736 18.4926 4.5 17.25 4.5L9.75 4.5C8.50736 4.5 7.5 5.50736 7.5 6.75V7.5M4.5 7.5L1.5 10.5M1.5 10.5L4.5 13.5M1.5 10.5L12.75 10.5M10.5 4.5V3.75C10.5 2.50736 11.5074 1.5 12.75 1.5H20.25C21.4926 1.5 22.5 2.50736 22.5 3.75V11.25C22.5 12.4926 21.4926 13.5 20.25 13.5H19.5" stroke="white" stroke-width="1.5" stroke-linecap="round" stroke-linejoin="round"/>
</svg>
