<svg width="25" height="25" viewBox="0 0 25 25" fill="none" xmlns="http://www.w3.org/2000/svg">
<path d="M16.4064 10.9375V6.25C16.4064 4.09264 14.6575 2.34375 12.5002 2.34375C10.3428 2.34375 8.59393 4.09264 8.59393 6.25V10.9375M20.4231 8.8617L21.7389 21.3617C21.8117 22.0536 21.2692 22.6562 20.5735 22.6562H4.42688C3.73114 22.6562 3.18861 22.0536 3.26145 21.3617L4.57724 8.8617C4.64002 8.26528 5.14296 7.8125 5.74267 7.8125H19.2577C19.8574 7.8125 20.3603 8.26528 20.4231 8.8617ZM8.98455 10.9375C8.98455 11.1532 8.80967 11.3281 8.59393 11.3281C8.37819 11.3281 8.2033 11.1532 8.2033 10.9375C8.2033 10.7218 8.37819 10.5469 8.59393 10.5469C8.80967 10.5469 8.98455 10.7218 8.98455 10.9375ZM16.7971 10.9375C16.7971 11.1532 16.6222 11.3281 16.4064 11.3281C16.1907 11.3281 16.0158 11.1532 16.0158 10.9375C16.0158 10.7218 16.1907 10.5469 16.4064 10.5469C16.6222 10.5469 16.7971 10.7218 16.7971 10.9375Z" stroke="#0D1A26" stroke-width="1.5" stroke-linecap="round" stroke-linejoin="round"/>
</svg>
