<svg width="26" height="24" viewBox="0 0 26 24" fill="none" xmlns="http://www.w3.org/2000/svg">
<path d="M11.2314 3.94005C11.3263 3.39759 11.8188 3 12.3958 3H13.5436C14.1207 3 14.6131 3.39759 14.708 3.94005L14.8643 4.83386C14.9385 5.25813 15.2668 5.59838 15.6837 5.76332C16.1007 5.92832 16.5795 5.90629 16.9469 5.65617L17.7208 5.12933C18.1903 4.80969 18.8336 4.86042 19.2416 5.24929L20.0532 6.02284C20.4613 6.41171 20.5145 7.02472 20.1791 7.47223L19.6261 8.21007C19.3638 8.56012 19.3406 9.01633 19.5137 9.41363C19.6867 9.81078 20.0436 10.1236 20.4887 10.1943L21.4267 10.3433C21.9959 10.4337 22.4131 10.9031 22.4131 11.453V12.547C22.4131 13.0969 21.9959 13.5663 21.4267 13.6567L20.4889 13.8056C20.0437 13.8764 19.6867 14.1893 19.5136 14.5865C19.3405 14.9839 19.3636 15.4403 19.6261 15.7904L20.1787 16.5278C20.5141 16.9753 20.4609 17.5884 20.0529 17.9772L19.2412 18.7508C18.8332 19.1396 18.19 19.1904 17.7204 18.8707L16.9465 18.3439C16.5792 18.0938 16.1004 18.0718 15.6835 18.2367C15.2668 18.4016 14.9385 18.7418 14.8643 19.166L14.708 20.0599C14.6131 20.6024 14.1207 21 13.5436 21H12.3958C11.8188 21 11.3263 20.6024 11.2314 20.0599L11.0751 19.1661C11.0009 18.7419 10.6726 18.4016 10.2558 18.2367C9.83881 18.0717 9.35999 18.0937 8.9926 18.3438L8.21864 18.8707C7.74909 19.1904 7.10588 19.1396 6.69785 18.7507L5.8862 17.9772C5.47817 17.5883 5.42494 16.9753 5.76034 16.5278L6.31333 15.79C6.57569 15.4399 6.59882 14.9837 6.42574 14.5864C6.25273 14.1892 5.8958 13.8764 5.45073 13.8057L4.51273 13.6567C3.94354 13.5663 3.52637 13.0969 3.52637 12.547V11.453C3.52637 10.9031 3.94354 10.4337 4.51273 10.3433L5.45056 10.1944C5.89574 10.1236 6.25275 9.81071 6.42581 9.41347C6.59895 9.01605 6.57582 8.5597 6.31339 8.20954L5.76075 7.47216C5.42535 7.02465 5.47859 6.41164 5.88661 6.02277L6.69827 5.24922C7.10629 4.86036 7.7495 4.80962 8.21905 5.12927L8.99299 5.65613C9.3603 5.90618 9.83901 5.92822 10.2559 5.76326C10.6726 5.59837 11.0009 5.25819 11.0751 4.834L11.2314 3.94005Z" stroke="#0D1A26" stroke-width="1.5" stroke-linecap="round" stroke-linejoin="round"/>
<path d="M16.1182 12C16.1182 13.6569 14.7089 15 12.9705 15C11.232 15 9.82267 13.6569 9.82267 12C9.82267 10.3432 11.232 9.00002 12.9705 9.00002C14.7089 9.00002 16.1182 10.3432 16.1182 12Z" stroke="#0D1A26" stroke-width="1.5" stroke-linecap="round" stroke-linejoin="round"/>
</svg>
