<svg width="54" height="54" viewBox="0 0 54 54" fill="none" xmlns="http://www.w3.org/2000/svg">
<circle cx="27.2132" cy="26.7854" r="24.6429" fill="#4BCBEB" fill-opacity="0.15"/>
<circle cx="27" cy="27" r="27" fill="#4BCBEB" fill-opacity="0.15"/>
<circle cx="27.0017" cy="26.9997" r="18.8571" fill="#4BCBEB" fill-opacity="0.15"/>
<path d="M18.8086 23.45V25.5569C18.8086 26.7205 19.7519 27.6638 20.9155 27.6638H33.5569C34.7205 27.6638 35.6638 26.7205 35.6638 25.5569V23.45M23.0224 15.0224L27.2362 10.8086M27.2362 10.8086L31.45 15.0224M27.2362 10.8086L27.2362 23.45" stroke="#0F172A" stroke-width="1.5" stroke-linecap="round" stroke-linejoin="round"/>
<path d="M19.3344 40.072C18.7024 40.072 18.1184 39.968 17.5824 39.76C17.0464 39.544 16.5824 39.244 16.1904 38.86C15.7984 38.476 15.4904 38.024 15.2664 37.504C15.0504 36.984 14.9424 36.416 14.9424 35.8C14.9424 35.184 15.0504 34.616 15.2664 34.096C15.4904 33.576 15.7984 33.124 16.1904 32.74C16.5904 32.356 17.0584 32.06 17.5944 31.852C18.1304 31.636 18.7144 31.528 19.3464 31.528C19.9544 31.528 20.5264 31.632 21.0624 31.84C21.5984 32.04 22.0504 32.344 22.4184 32.752L21.8544 33.316C21.5104 32.964 21.1304 32.712 20.7144 32.56C20.2984 32.4 19.8504 32.32 19.3704 32.32C18.8664 32.32 18.3984 32.408 17.9664 32.584C17.5344 32.752 17.1584 32.996 16.8384 33.316C16.5184 33.628 16.2664 33.996 16.0824 34.42C15.9064 34.836 15.8184 35.296 15.8184 35.8C15.8184 36.304 15.9064 36.768 16.0824 37.192C16.2664 37.608 16.5184 37.976 16.8384 38.296C17.1584 38.608 17.5344 38.852 17.9664 39.028C18.3984 39.196 18.8664 39.28 19.3704 39.28C19.8504 39.28 20.2984 39.2 20.7144 39.04C21.1304 38.88 21.5104 38.624 21.8544 38.272L22.4184 38.836C22.0504 39.244 21.5984 39.552 21.0624 39.76C20.5264 39.968 19.9504 40.072 19.3344 40.072ZM26.6039 40.072C25.9799 40.072 25.3799 39.972 24.8039 39.772C24.2359 39.564 23.7959 39.3 23.4839 38.98L23.8319 38.296C24.1279 38.584 24.5239 38.828 25.0199 39.028C25.5239 39.22 26.0519 39.316 26.6039 39.316C27.1319 39.316 27.5599 39.252 27.8879 39.124C28.2239 38.988 28.4679 38.808 28.6199 38.584C28.7799 38.36 28.8599 38.112 28.8599 37.84C28.8599 37.512 28.7639 37.248 28.5719 37.048C28.3879 36.848 28.1439 36.692 27.8399 36.58C27.5359 36.46 27.1999 36.356 26.8319 36.268C26.4639 36.18 26.0959 36.088 25.7279 35.992C25.3599 35.888 25.0199 35.752 24.7079 35.584C24.4039 35.416 24.1559 35.196 23.9639 34.924C23.7799 34.644 23.6879 34.28 23.6879 33.832C23.6879 33.416 23.7959 33.036 24.0119 32.692C24.2359 32.34 24.5759 32.06 25.0319 31.852C25.4879 31.636 26.0719 31.528 26.7839 31.528C27.2559 31.528 27.7239 31.596 28.1879 31.732C28.6519 31.86 29.0519 32.04 29.3879 32.272L29.0879 32.98C28.7279 32.74 28.3439 32.564 27.9359 32.452C27.5359 32.34 27.1479 32.284 26.7719 32.284C26.2679 32.284 25.8519 32.352 25.5239 32.488C25.1959 32.624 24.9519 32.808 24.7919 33.04C24.6399 33.264 24.5639 33.52 24.5639 33.808C24.5639 34.136 24.6559 34.4 24.8399 34.6C25.0319 34.8 25.2799 34.956 25.5839 35.068C25.8959 35.18 26.2359 35.28 26.6039 35.368C26.9719 35.456 27.3359 35.552 27.6959 35.656C28.0639 35.76 28.3999 35.896 28.7039 36.064C29.0159 36.224 29.2639 36.44 29.4479 36.712C29.6399 36.984 29.7359 37.34 29.7359 37.78C29.7359 38.188 29.6239 38.568 29.3999 38.92C29.1759 39.264 28.8319 39.544 28.3679 39.76C27.9119 39.968 27.3239 40.072 26.6039 40.072ZM34.0587 40L30.3387 31.6H31.2987L34.7787 39.508H34.2507L37.7547 31.6H38.6547L34.9347 40H34.0587Z" fill="black"/>
</svg>
