<svg width="27" height="36" viewBox="0 0 27 36" fill="none" xmlns="http://www.w3.org/2000/svg">
<path d="M5.80859 15.45V17.5569C5.80859 18.7205 6.75188 19.6638 7.91549 19.6638H20.5569C21.7205 19.6638 22.6638 18.7205 22.6638 17.5569V15.45M10.0224 7.02239L14.2362 2.80859M14.2362 2.80859L18.45 7.02239M14.2362 2.80859L14.2362 15.45" stroke="#0F172A" stroke-width="1.5" stroke-linecap="round" stroke-linejoin="round"/>
<path d="M6.33436 32.072C5.70236 32.072 5.11836 31.968 4.58236 31.76C4.04636 31.544 3.58236 31.244 3.19036 30.86C2.79836 30.476 2.49036 30.024 2.26636 29.504C2.05036 28.984 1.94236 28.416 1.94236 27.8C1.94236 27.184 2.05036 26.616 2.26636 26.096C2.49036 25.576 2.79836 25.124 3.19036 24.74C3.59036 24.356 4.05836 24.06 4.59436 23.852C5.13036 23.636 5.71436 23.528 6.34636 23.528C6.95436 23.528 7.52636 23.632 8.06236 23.84C8.59836 24.04 9.05036 24.344 9.41836 24.752L8.85436 25.316C8.51036 24.964 8.13036 24.712 7.71436 24.56C7.29836 24.4 6.85036 24.32 6.37036 24.32C5.86636 24.32 5.39836 24.408 4.96636 24.584C4.53436 24.752 4.15836 24.996 3.83836 25.316C3.51836 25.628 3.26636 25.996 3.08236 26.42C2.90636 26.836 2.81836 27.296 2.81836 27.8C2.81836 28.304 2.90636 28.768 3.08236 29.192C3.26636 29.608 3.51836 29.976 3.83836 30.296C4.15836 30.608 4.53436 30.852 4.96636 31.028C5.39836 31.196 5.86636 31.28 6.37036 31.28C6.85036 31.28 7.29836 31.2 7.71436 31.04C8.13036 30.88 8.51036 30.624 8.85436 30.272L9.41836 30.836C9.05036 31.244 8.59836 31.552 8.06236 31.76C7.52636 31.968 6.95036 32.072 6.33436 32.072ZM13.6039 32.072C12.9799 32.072 12.3799 31.972 11.8039 31.772C11.2359 31.564 10.7959 31.3 10.4839 30.98L10.8319 30.296C11.1279 30.584 11.5239 30.828 12.0199 31.028C12.5239 31.22 13.0519 31.316 13.6039 31.316C14.1319 31.316 14.5599 31.252 14.8879 31.124C15.2239 30.988 15.4679 30.808 15.6199 30.584C15.7799 30.36 15.8599 30.112 15.8599 29.84C15.8599 29.512 15.7639 29.248 15.5719 29.048C15.3879 28.848 15.1439 28.692 14.8399 28.58C14.5359 28.46 14.1999 28.356 13.8319 28.268C13.4639 28.18 13.0959 28.088 12.7279 27.992C12.3599 27.888 12.0199 27.752 11.7079 27.584C11.4039 27.416 11.1559 27.196 10.9639 26.924C10.7799 26.644 10.6879 26.28 10.6879 25.832C10.6879 25.416 10.7959 25.036 11.0119 24.692C11.2359 24.34 11.5759 24.06 12.0319 23.852C12.4879 23.636 13.0719 23.528 13.7839 23.528C14.2559 23.528 14.7239 23.596 15.1879 23.732C15.6519 23.86 16.0519 24.04 16.3879 24.272L16.0879 24.98C15.7279 24.74 15.3439 24.564 14.9359 24.452C14.5359 24.34 14.1479 24.284 13.7719 24.284C13.2679 24.284 12.8519 24.352 12.5239 24.488C12.1959 24.624 11.9519 24.808 11.7919 25.04C11.6399 25.264 11.5639 25.52 11.5639 25.808C11.5639 26.136 11.6559 26.4 11.8399 26.6C12.0319 26.8 12.2799 26.956 12.5839 27.068C12.8959 27.18 13.2359 27.28 13.6039 27.368C13.9719 27.456 14.3359 27.552 14.6959 27.656C15.0639 27.76 15.3999 27.896 15.7039 28.064C16.0159 28.224 16.2639 28.44 16.4479 28.712C16.6399 28.984 16.7359 29.34 16.7359 29.78C16.7359 30.188 16.6239 30.568 16.3999 30.92C16.1759 31.264 15.8319 31.544 15.3679 31.76C14.9119 31.968 14.3239 32.072 13.6039 32.072ZM21.0587 32L17.3387 23.6H18.2987L21.7787 31.508H21.2507L24.7547 23.6H25.6547L21.9347 32H21.0587Z" fill="black"/>
</svg>
