<svg width="121" height="121" viewBox="0 0 121 121" fill="none" xmlns="http://www.w3.org/2000/svg">
<circle cx="60.5" cy="60.5" r="60.5" transform="matrix(0 1 1 0 0 0)" fill="white"/>
<path d="M39.392 71.24C38.496 71.24 37.648 71.128 36.848 70.904C36.048 70.68 35.336 70.344 34.712 69.896C34.088 69.432 33.592 68.864 33.224 68.192C32.872 67.52 32.68 66.736 32.648 65.84C32.648 65.696 32.696 65.576 32.792 65.48C32.888 65.368 33.016 65.312 33.176 65.312H35.912C36.12 65.312 36.28 65.368 36.392 65.48C36.52 65.592 36.616 65.752 36.68 65.96C36.76 66.472 36.928 66.888 37.184 67.208C37.44 67.528 37.76 67.768 38.144 67.928C38.544 68.072 38.992 68.144 39.488 68.144C40.4 68.144 41.096 67.848 41.576 67.256C42.072 66.664 42.32 65.824 42.32 64.736V57.392H34.328C34.168 57.392 34.032 57.336 33.92 57.224C33.808 57.112 33.752 56.976 33.752 56.816V54.8C33.752 54.624 33.808 54.48 33.92 54.368C34.032 54.256 34.168 54.2 34.328 54.2H45.632C45.808 54.2 45.952 54.256 46.064 54.368C46.176 54.48 46.232 54.624 46.232 54.8V64.832C46.232 66.208 45.944 67.376 45.368 68.336C44.792 69.28 43.992 70 42.968 70.496C41.944 70.992 40.752 71.24 39.392 71.24ZM56.3152 71.24C54.8592 71.24 53.6032 71 52.5472 70.52C51.4912 70.04 50.6672 69.32 50.0752 68.36C49.4832 67.384 49.1632 66.16 49.1152 64.688C49.0992 64 49.0912 63.32 49.0912 62.648C49.0912 61.96 49.0992 61.264 49.1152 60.56C49.1632 59.12 49.4832 57.912 50.0752 56.936C50.6832 55.944 51.5152 55.2 52.5712 54.704C53.6432 54.208 54.8912 53.96 56.3152 53.96C57.7232 53.96 58.9552 54.208 60.0112 54.704C61.0832 55.2 61.9232 55.944 62.5312 56.936C63.1392 57.912 63.4592 59.12 63.4912 60.56C63.5232 61.264 63.5392 61.96 63.5392 62.648C63.5392 63.32 63.5232 64 63.4912 64.688C63.4432 66.16 63.1232 67.384 62.5312 68.36C61.9392 69.32 61.1152 70.04 60.0592 70.52C59.0032 71 57.7552 71.24 56.3152 71.24ZM56.3152 68.144C57.2432 68.144 58.0032 67.864 58.5952 67.304C59.2032 66.728 59.5232 65.816 59.5552 64.568C59.5872 63.864 59.6032 63.208 59.6032 62.6C59.6032 61.976 59.5872 61.32 59.5552 60.632C59.5392 59.8 59.3872 59.12 59.0992 58.592C58.8112 58.064 58.4272 57.68 57.9472 57.44C57.4832 57.184 56.9392 57.056 56.3152 57.056C55.6912 57.056 55.1392 57.184 54.6592 57.44C54.1792 57.68 53.7952 58.064 53.5072 58.592C53.2352 59.12 53.0832 59.8 53.0512 60.632C53.0352 61.32 53.0272 61.976 53.0272 62.6C53.0272 63.208 53.0352 63.864 53.0512 64.568C53.0992 65.816 53.4192 66.728 54.0112 67.304C54.6032 67.864 55.3712 68.144 56.3152 68.144ZM67.1182 71C66.9422 71 66.7982 70.944 66.6862 70.832C66.5742 70.72 66.5182 70.576 66.5182 70.4V54.8C66.5182 54.624 66.5742 54.48 66.6862 54.368C66.7982 54.256 66.9422 54.2 67.1182 54.2H69.8302C70.0062 54.2 70.1502 54.256 70.2622 54.368C70.3742 54.48 70.4302 54.624 70.4302 54.8V70.4C70.4302 70.576 70.3742 70.72 70.2622 70.832C70.1502 70.944 70.0062 71 69.8302 71H67.1182ZM74.5713 71C74.3953 71 74.2513 70.944 74.1393 70.832C74.0273 70.72 73.9713 70.576 73.9713 70.4V54.8C73.9713 54.624 74.0273 54.48 74.1393 54.368C74.2513 54.256 74.3953 54.2 74.5713 54.2H76.7553C76.9953 54.2 77.1713 54.256 77.2833 54.368C77.3953 54.48 77.4673 54.568 77.4993 54.632L83.9073 64.64V54.8C83.9073 54.624 83.9633 54.48 84.0753 54.368C84.1873 54.256 84.3233 54.2 84.4833 54.2H86.9313C87.1073 54.2 87.2513 54.256 87.3633 54.368C87.4753 54.48 87.5313 54.624 87.5313 54.8V70.4C87.5313 70.56 87.4753 70.704 87.3633 70.832C87.2513 70.944 87.1073 71 86.9313 71H84.7233C84.4833 71 84.3073 70.944 84.1953 70.832C84.0993 70.704 84.0273 70.616 83.9793 70.568L77.5953 60.872V70.4C77.5953 70.576 77.5393 70.72 77.4273 70.832C77.3153 70.944 77.1713 71 76.9953 71H74.5713Z" fill="#0D1A26"/>
<path d="M104.019 83.9781C104.381 84.1797 104.511 84.6371 104.304 84.9959C97.8095 96.247 87.1837 104.539 74.6689 108.095C61.9132 111.721 48.2398 110.13 36.6568 103.674C25.0738 97.2177 16.5299 86.4245 12.9047 73.6689C9.34788 61.154 10.8117 47.7557 16.9657 36.315C17.1619 35.9502 17.6194 35.8203 17.9812 36.0219C18.343 36.2236 18.4721 36.6804 18.2761 37.0453C12.3157 48.1385 10.8995 61.1266 14.3475 73.2588C17.864 85.6318 26.1515 96.1011 37.3871 102.364C48.6226 108.626 61.8858 110.169 74.2588 106.652C86.391 103.204 96.6929 95.1692 102.993 84.2655C103.201 83.9068 103.657 83.7764 104.019 83.9781Z" fill="#0D1A26"/>
</svg>
