<svg width="13" height="15" viewBox="0 0 13 15" fill="none" xmlns="http://www.w3.org/2000/svg">
<path fill-rule="evenodd" clip-rule="evenodd" d="M9.74996 2.12728V2.28927C10.4395 2.3517 11.1233 2.43379 11.8008 2.53498C12.0516 2.57245 12.3016 2.61254 12.5507 2.65521C12.8455 2.70571 13.043 2.98298 12.992 3.2745C12.9409 3.56603 12.6606 3.76142 12.3658 3.71092C12.3155 3.70231 12.2652 3.6938 12.2149 3.68541L11.4887 13.0215C11.4019 14.1379 10.4606 15 9.32849 15H3.67151C2.53936 15 1.59808 14.1379 1.51125 13.0215L0.78512 3.68541C0.734776 3.6938 0.684468 3.70231 0.634199 3.71092C0.339438 3.76142 0.0590961 3.56603 0.0080368 3.2745C-0.0430225 2.98298 0.154536 2.70571 0.449297 2.65521C0.698387 2.61254 0.948371 2.57245 1.19922 2.53498C1.87673 2.43379 2.56053 2.3517 3.25004 2.28927V2.12728C3.25004 1.0098 4.12575 0.0558447 5.28339 0.0192193C5.68736 0.00643848 6.09293 0 6.5 0C6.90707 0 7.31264 0.00643848 7.71661 0.0192193C8.87425 0.0558447 9.74996 1.0098 9.74996 2.12728ZM5.31802 1.0901C5.71045 1.07768 6.10448 1.07143 6.5 1.07143C6.89552 1.07143 7.28954 1.07768 7.68198 1.0901C8.22697 1.10734 8.66664 1.55995 8.66664 2.12728V2.20773C7.94994 2.16469 7.22751 2.14286 6.5 2.14286C5.77248 2.14286 5.05006 2.16469 4.33336 2.20773V2.12728C4.33336 1.55995 4.77303 1.10734 5.31802 1.0901ZM5.06179 5.33655C5.05029 5.0409 4.79864 4.81045 4.49971 4.82182C4.20078 4.8332 3.96777 5.08208 3.97927 5.37773L4.22926 11.8063C4.24076 12.102 4.49241 12.3324 4.79134 12.321C5.09027 12.3097 5.32328 12.0608 5.31178 11.7651L5.06179 5.33655ZM9.02007 5.37773C9.03156 5.08208 8.79855 4.8332 8.49962 4.82182C8.2007 4.81045 7.94904 5.0409 7.93755 5.33655L7.68755 11.7651C7.67605 12.0608 7.90906 12.3097 8.20799 12.321C8.50692 12.3324 8.75857 12.102 8.77007 11.8063L9.02007 5.37773Z" fill="#0F172A"/>
</svg>
