<svg width="25" height="31" viewBox="0 0 25 31" fill="none" xmlns="http://www.w3.org/2000/svg">
<path d="M23.4375 18.7812V14.9531C23.4375 12.2348 21.2339 10.0312 18.5156 10.0312H16.3281C15.422 10.0312 14.6875 9.29672 14.6875 8.39062V6.20312C14.6875 3.48485 12.4839 1.28125 9.76562 1.28125H7.03125M16.875 18.7813L12.5 14.4063M12.5 14.4063L8.125 18.7812M12.5 14.4063L12.5 23.1562M10.3125 1.28125H3.20312C2.29703 1.28125 1.5625 2.01578 1.5625 2.92187V28.0781C1.5625 28.9842 2.29703 29.7188 3.20312 29.7188H21.7969C22.703 29.7188 23.4375 28.9842 23.4375 28.0781V14.4062C23.4375 7.15751 17.5612 1.28125 10.3125 1.28125Z" stroke="#0F172A" stroke-width="1.5" stroke-linecap="round" stroke-linejoin="round"/>
</svg>
