<svg width="26" height="24" viewBox="0 0 26 24" fill="none" xmlns="http://www.w3.org/2000/svg">
<path d="M11.9789 3.58619C11.9142 3.79602 11.8794 4.01894 11.8794 4.25C11.8794 4.66421 12.2152 5 12.6294 5H17.1294C17.5436 5 17.8794 4.66421 17.8794 4.25C17.8794 4.01894 17.8446 3.79602 17.7799 3.58619M11.9789 3.58619C12.2621 2.66757 13.1178 2 14.1294 2H15.6294C16.641 2 17.4966 2.66757 17.7799 3.58619M11.9789 3.58619C11.6033 3.60858 11.2288 3.63529 10.8555 3.66627C9.72439 3.76015 8.87939 4.72324 8.87939 5.85822V8M17.7799 3.58619C18.1555 3.60858 18.53 3.63529 18.9033 3.66627C20.0344 3.76015 20.8794 4.72324 20.8794 5.85822V16.25C20.8794 17.4926 19.872 18.5 18.6294 18.5H16.3794M8.87939 8H5.50439C4.88307 8 4.37939 8.50368 4.37939 9.125V20.375C4.37939 20.9963 4.88307 21.5 5.50439 21.5H15.2544C15.8757 21.5 16.3794 20.9963 16.3794 20.375V18.5M8.87939 8H15.2544C15.8757 8 16.3794 8.50368 16.3794 9.125V18.5M8.12939 15.5L9.62939 17L12.6294 13.25" stroke="#0D1A26" stroke-width="1.5" stroke-linecap="round" stroke-linejoin="round"/>
</svg>
