<svg width="20" height="24" viewBox="0 0 20 24" fill="none" xmlns="http://www.w3.org/2000/svg">
<path d="M9.29532 3.15587C9.22523 3.38319 9.1875 3.62469 9.1875 3.875C9.1875 4.32373 9.55127 4.6875 10 4.6875H14.875C15.3237 4.6875 15.6875 4.32373 15.6875 3.875C15.6875 3.62469 15.6498 3.38319 15.5797 3.15587M9.29532 3.15587C9.60215 2.1607 10.5291 1.4375 11.625 1.4375H13.25C14.3459 1.4375 15.2728 2.1607 15.5797 3.15587M9.29532 3.15587C8.88835 3.18013 8.48265 3.20907 8.07826 3.24263C6.85291 3.34433 5.9375 4.38767 5.9375 5.61724V7.9375M15.5797 3.15587C15.9866 3.18013 16.3924 3.20907 16.7967 3.24263C18.0221 3.34433 18.9375 4.38767 18.9375 5.61724V16.875C18.9375 18.2212 17.8462 19.3125 16.5 19.3125H14.0625M5.9375 7.9375H2.28125C1.60815 7.9375 1.0625 8.48315 1.0625 9.15625V21.3438C1.0625 22.0168 1.60815 22.5625 2.28125 22.5625H12.8438C13.5168 22.5625 14.0625 22.0168 14.0625 21.3438V19.3125M5.9375 7.9375H12.8438C13.5168 7.9375 14.0625 8.48315 14.0625 9.15625V19.3125M5.125 16.0625L6.75 17.6875L10 13.625" stroke="white" stroke-width="1.5" stroke-linecap="round" stroke-linejoin="round"/>
</svg>
