<svg width="24" height="24" viewBox="0 0 24 24" fill="none" xmlns="http://www.w3.org/2000/svg">
<path d="M7.5 16.5V17.25C7.5 18.4926 8.50736 19.5 9.75 19.5H17.25C18.4926 19.5 19.5 18.4926 19.5 17.25V9.75C19.5 8.50736 18.4926 7.5 17.25 7.5L9.75 7.5C8.50736 7.5 7.5 8.50736 7.5 9.75V10.5M4.5 10.5L1.5 13.5M1.5 13.5L4.5 16.5M1.5 13.5L12.75 13.5M10.5 7.5V6.75C10.5 5.50736 11.5074 4.5 12.75 4.5H20.25C21.4926 4.5 22.5 5.50736 22.5 6.75V14.25C22.5 15.4926 21.4926 16.5 20.25 16.5H19.5" stroke="#0D1A26" stroke-width="1.5" stroke-linecap="round" stroke-linejoin="round"/>
</svg>
