<svg width="21" height="23" viewBox="0 0 21 23" fill="none" xmlns="http://www.w3.org/2000/svg">
<path d="M14.4055 9.9375V5.25C14.4055 3.09264 12.6566 1.34375 10.4992 1.34375C8.34184 1.34375 6.59295 3.09264 6.59295 5.25V9.9375M18.4221 7.8617L19.7379 20.3617C19.8108 21.0536 19.2682 21.6562 18.5725 21.6562H2.42591C1.73016 21.6562 1.18764 21.0536 1.26047 20.3617L2.57626 7.8617C2.63904 7.26528 3.14198 6.8125 3.7417 6.8125H17.2567C17.8564 6.8125 18.3594 7.26528 18.4221 7.8617ZM6.98358 9.9375C6.98358 10.1532 6.80869 10.3281 6.59295 10.3281C6.37722 10.3281 6.20233 10.1532 6.20233 9.9375C6.20233 9.72176 6.37722 9.54688 6.59295 9.54688C6.80869 9.54688 6.98358 9.72176 6.98358 9.9375ZM14.7961 9.9375C14.7961 10.1532 14.6212 10.3281 14.4055 10.3281C14.1897 10.3281 14.0148 10.1532 14.0148 9.9375C14.0148 9.72176 14.1897 9.54688 14.4055 9.54688C14.6212 9.54688 14.7961 9.72176 14.7961 9.9375Z" stroke="white" stroke-width="1.5" stroke-linecap="round" stroke-linejoin="round"/>
</svg>
