<svg width="22" height="19" viewBox="0 0 22 19" fill="none" xmlns="http://www.w3.org/2000/svg">
<path d="M1.25 15.75C6.71719 15.75 12.0136 16.4812 17.0468 17.8512C17.7738 18.0491 18.5 17.5086 18.5 16.7551V15.75M2.75 1.5V2.25C2.75 2.66421 2.41421 3 2 3H1.25M1.25 3V2.625C1.25 2.00368 1.75368 1.5 2.375 1.5H19.25M1.25 3V12M19.25 1.5V2.25C19.25 2.66421 19.5858 3 20 3H20.75M19.25 1.5H19.625C20.2463 1.5 20.75 2.00368 20.75 2.625V12.375C20.75 12.9963 20.2463 13.5 19.625 13.5H19.25M20.75 12H20C19.5858 12 19.25 12.3358 19.25 12.75V13.5M19.25 13.5H2.75M2.75 13.5H2.375C1.75368 13.5 1.25 12.9963 1.25 12.375V12M2.75 13.5V12.75C2.75 12.3358 2.41421 12 2 12H1.25M14 7.5C14 9.15685 12.6569 10.5 11 10.5C9.34315 10.5 8 9.15685 8 7.5C8 5.84315 9.34315 4.5 11 4.5C12.6569 4.5 14 5.84315 14 7.5ZM17 7.5H17.0075V7.5075H17V7.5ZM5 7.5H5.0075V7.5075H5V7.5Z" stroke="white" stroke-width="1.5" stroke-linecap="round" stroke-linejoin="round"/>
</svg>
