<svg width="141" height="141" viewBox="0 0 141 141" fill="none" xmlns="http://www.w3.org/2000/svg">
<circle cx="69.8234" cy="67.8232" r="60.5" transform="rotate(90 69.8234 67.8232)" fill="white"/>
<path d="M35.6994 78.3232C35.5234 78.3232 35.3794 78.2672 35.2674 78.1552C35.1554 78.0432 35.0994 77.8992 35.0994 77.7232V62.1232C35.0994 61.9472 35.1554 61.8032 35.2674 61.6912C35.3794 61.5792 35.5234 61.5232 35.6994 61.5232H38.3634C38.5394 61.5232 38.6834 61.5792 38.7954 61.6912C38.9074 61.8032 38.9634 61.9472 38.9634 62.1232V75.1072H46.4034C46.5794 75.1072 46.7234 75.1632 46.8354 75.2752C46.9474 75.3872 47.0034 75.5312 47.0034 75.7072V77.7232C47.0034 77.8992 46.9474 78.0432 46.8354 78.1552C46.7234 78.2672 46.5794 78.3232 46.4034 78.3232H35.6994ZM55.6698 78.5632C54.2138 78.5632 52.9578 78.3232 51.9018 77.8432C50.8458 77.3632 50.0218 76.6432 49.4298 75.6832C48.8378 74.7072 48.5178 73.4832 48.4698 72.0112C48.4538 71.3232 48.4458 70.6432 48.4458 69.9712C48.4458 69.2832 48.4538 68.5872 48.4698 67.8832C48.5178 66.4432 48.8378 65.2352 49.4298 64.2592C50.0378 63.2672 50.8698 62.5232 51.9258 62.0272C52.9978 61.5312 54.2458 61.2832 55.6698 61.2832C57.0778 61.2832 58.3098 61.5312 59.3658 62.0272C60.4378 62.5232 61.2778 63.2672 61.8858 64.2592C62.4938 65.2352 62.8138 66.4432 62.8458 67.8832C62.8778 68.5872 62.8938 69.2832 62.8938 69.9712C62.8938 70.6432 62.8778 71.3232 62.8458 72.0112C62.7978 73.4832 62.4778 74.7072 61.8858 75.6832C61.2938 76.6432 60.4698 77.3632 59.4138 77.8432C58.3578 78.3232 57.1098 78.5632 55.6698 78.5632ZM55.6698 75.4672C56.5978 75.4672 57.3578 75.1872 57.9498 74.6272C58.5578 74.0512 58.8778 73.1392 58.9098 71.8912C58.9418 71.1872 58.9578 70.5312 58.9578 69.9232C58.9578 69.2992 58.9418 68.6432 58.9098 67.9552C58.8938 67.1232 58.7418 66.4432 58.4538 65.9152C58.1658 65.3872 57.7818 65.0032 57.3018 64.7632C56.8378 64.5072 56.2938 64.3792 55.6698 64.3792C55.0458 64.3792 54.4938 64.5072 54.0138 64.7632C53.5338 65.0032 53.1498 65.3872 52.8618 65.9152C52.5898 66.4432 52.4378 67.1232 52.4058 67.9552C52.3898 68.6432 52.3818 69.2992 52.3818 69.9232C52.3818 70.5312 52.3898 71.1872 52.4058 71.8912C52.4538 73.1392 52.7738 74.0512 53.3658 74.6272C53.9578 75.1872 54.7258 75.4672 55.6698 75.4672ZM72.6168 78.5632C71.1128 78.5632 69.8248 78.3152 68.7528 77.8192C67.6968 77.3072 66.8728 76.5712 66.2808 75.6112C65.7048 74.6352 65.3928 73.4592 65.3448 72.0832C65.3288 71.3952 65.3208 70.6592 65.3208 69.8752C65.3208 69.0912 65.3288 68.3472 65.3448 67.6432C65.3928 66.2992 65.7048 65.1552 66.2808 64.2112C66.8728 63.2672 67.7048 62.5472 68.7768 62.0512C69.8648 61.5392 71.1448 61.2832 72.6168 61.2832C73.8008 61.2832 74.8408 61.4352 75.7368 61.7392C76.6328 62.0432 77.3848 62.4432 77.9928 62.9392C78.6008 63.4192 79.0648 63.9472 79.3848 64.5232C79.7048 65.0992 79.8728 65.6512 79.8888 66.1792C79.8888 66.3232 79.8408 66.4512 79.7448 66.5632C79.6488 66.6592 79.5208 66.7072 79.3608 66.7072H76.3848C76.2248 66.7072 76.0968 66.6752 76.0008 66.6112C75.9208 66.5472 75.8488 66.4512 75.7848 66.3232C75.6728 66.0352 75.4888 65.7472 75.2328 65.4592C74.9928 65.1552 74.6648 64.8992 74.2488 64.6912C73.8328 64.4832 73.2888 64.3792 72.6168 64.3792C71.6088 64.3792 70.8088 64.6432 70.2168 65.1712C69.6408 65.6992 69.3288 66.5632 69.2808 67.7632C69.2328 69.1392 69.2328 70.5392 69.2808 71.9632C69.3288 73.2112 69.6488 74.1072 70.2408 74.6512C70.8488 75.1952 71.6568 75.4672 72.6648 75.4672C73.3208 75.4672 73.9048 75.3552 74.4168 75.1312C74.9448 74.8912 75.3608 74.5232 75.6648 74.0272C75.9688 73.5312 76.1208 72.8992 76.1208 72.1312V71.5312H73.5048C73.3448 71.5312 73.2088 71.4752 73.0968 71.3632C72.9848 71.2352 72.9288 71.0912 72.9288 70.9312V69.3952C72.9288 69.2192 72.9848 69.0752 73.0968 68.9632C73.2088 68.8512 73.3448 68.7952 73.5048 68.7952H79.3848C79.5608 68.7952 79.7048 68.8512 79.8168 68.9632C79.9288 69.0752 79.9848 69.2192 79.9848 69.3952V72.0112C79.9848 73.3872 79.6808 74.5632 79.0728 75.5392C78.4808 76.5152 77.6248 77.2672 76.5048 77.7952C75.4008 78.3072 74.1048 78.5632 72.6168 78.5632ZM83.5119 78.3232C83.3359 78.3232 83.1919 78.2672 83.0799 78.1552C82.9679 78.0432 82.9119 77.8992 82.9119 77.7232V62.1232C82.9119 61.9472 82.9679 61.8032 83.0799 61.6912C83.1919 61.5792 83.3359 61.5232 83.5119 61.5232H86.2239C86.3999 61.5232 86.5439 61.5792 86.6559 61.6912C86.7679 61.8032 86.8239 61.9472 86.8239 62.1232V77.7232C86.8239 77.8992 86.7679 78.0432 86.6559 78.1552C86.5439 78.2672 86.3999 78.3232 86.2239 78.3232H83.5119ZM90.965 78.3232C90.789 78.3232 90.645 78.2672 90.533 78.1552C90.421 78.0432 90.365 77.8992 90.365 77.7232V62.1232C90.365 61.9472 90.421 61.8032 90.533 61.6912C90.645 61.5792 90.789 61.5232 90.965 61.5232H93.149C93.389 61.5232 93.565 61.5792 93.677 61.6912C93.789 61.8032 93.861 61.8912 93.893 61.9552L100.301 71.9632V62.1232C100.301 61.9472 100.357 61.8032 100.469 61.6912C100.581 61.5792 100.717 61.5232 100.877 61.5232H103.325C103.501 61.5232 103.645 61.5792 103.757 61.6912C103.869 61.8032 103.925 61.9472 103.925 62.1232V77.7232C103.925 77.8832 103.869 78.0272 103.757 78.1552C103.645 78.2672 103.501 78.3232 103.325 78.3232H101.117C100.877 78.3232 100.701 78.2672 100.589 78.1552C100.493 78.0272 100.421 77.9392 100.373 77.8912L93.989 68.1952V77.7232C93.989 77.8992 93.933 78.0432 93.821 78.1552C93.709 78.2672 93.565 78.3232 93.389 78.3232H90.965Z" fill="#0D1A26"/>
<path d="M101.317 32.0489C101.578 31.727 102.051 31.6771 102.369 31.9426C112.341 40.2684 118.689 52.1577 120.049 65.0969C121.436 78.2851 117.526 91.4837 109.181 101.789C100.835 112.095 88.7379 118.663 75.5497 120.049C62.6105 121.409 49.6612 117.672 39.444 109.648C39.1182 109.393 39.0686 108.92 39.3293 108.598C39.59 108.276 40.0622 108.227 40.3881 108.483C50.296 116.256 62.8494 119.876 75.393 118.558C88.1855 117.213 99.9199 110.842 108.015 100.845C116.11 90.8489 119.902 78.0462 118.558 65.2537C117.239 52.7101 111.088 41.1838 101.425 33.1085C101.107 32.8428 101.057 32.3708 101.317 32.0489Z" fill="#232321"/>
<path d="M99.3584 28.8244C99.0829 28.8051 98.8439 29.0127 98.8246 29.2882L98.5099 33.7772C98.4906 34.0526 98.6982 34.2916 98.9737 34.3109C99.2491 34.3302 99.4881 34.1226 99.5074 33.8471L99.7872 29.8569L103.777 30.1367C104.053 30.156 104.292 29.9484 104.311 29.6729C104.33 29.3974 104.123 29.1585 103.847 29.1391L99.3584 28.8244ZM100.357 29.75L99.7008 28.9952L98.946 29.6511L99.6019 30.406L100.357 29.75Z" fill="#232321"/>
</svg>
